<svg xmlns="http://www.w3.org/2000/svg" width="256" height="256" viewBox="0 0 256 256">
  <defs>
    <linearGradient id="bg" x1="0%" y1="0%" x2="100%" y2="100%">
      <stop offset="0%" style="stop-color:#FAF8F3"/>
      <stop offset="100%" style="stop-color:#F5F0E6"/>
    </linearGradient>
    <linearGradient id="leaf" x1="0%" y1="0%" x2="0%" y2="100%">
      <stop offset="0%" style="stop-color:#8FA978"/>
      <stop offset="100%" style="stop-color:#6B8E5A"/>
    </linearGradient>
  </defs>
  <rect width="256" height="256" rx="38.4" fill="url(#bg)"/>
  <path d="M128 30.72 C76.8 64 56.32 120.32 128 204.8 C199.68 120.32 179.2 64 128 30.72Z" fill="url(#leaf)"/>
  <path d="M128 56.32 L128 179.2" stroke="#8B7355" stroke-width="5.12" stroke-linecap="round" fill="none"/>
  <ellipse cx="87.04" cy="102.4" rx="28.16" ry="14.08" fill="#A9C094" transform="rotate(-25 87.04 102.4)"/>
  <ellipse cx="168.96" cy="117.76" rx="28.16" ry="14.08" fill="#A9C094" transform="rotate(25 168.96 117.76)"/>
  <ellipse cx="97.28" cy="140.8" rx="20.48" ry="10.24" fill="#A9C094" transform="rotate(-20 97.28 140.8)"/>
  <circle cx="81.92" cy="56.32" r="7.68" fill="#E8B4B8"/>
  <circle cx="174.08" cy="66.56" r="6.4" fill="#F4D03F"/>
  <circle cx="128" cy="43.52" r="7.68" fill="#E8B4B8"/>
</svg>