<svg xmlns="http://www.w3.org/2000/svg" width="32" height="32" viewBox="0 0 32 32">
  <defs>
    <linearGradient id="bg" x1="0%" y1="0%" x2="100%" y2="100%">
      <stop offset="0%" style="stop-color:#FAF8F3"/>
      <stop offset="100%" style="stop-color:#F5F0E6"/>
    </linearGradient>
    <linearGradient id="leaf" x1="0%" y1="0%" x2="0%" y2="100%">
      <stop offset="0%" style="stop-color:#8FA978"/>
      <stop offset="100%" style="stop-color:#6B8E5A"/>
    </linearGradient>
  </defs>
  <rect width="32" height="32" rx="4.8" fill="url(#bg)"/>
  <path d="M16 3.84 C9.6 8 7.04 15.04 16 25.6 C24.96 15.04 22.4 8 16 3.84Z" fill="url(#leaf)"/>
  <path d="M16 7.04 L16 22.4" stroke="#8B7355" stroke-width="0.64" stroke-linecap="round" fill="none"/>
  <ellipse cx="10.88" cy="12.8" rx="3.52" ry="1.76" fill="#A9C094" transform="rotate(-25 10.88 12.8)"/>
  <ellipse cx="21.12" cy="14.72" rx="3.52" ry="1.76" fill="#A9C094" transform="rotate(25 21.12 14.72)"/>
  <ellipse cx="12.16" cy="17.6" rx="2.56" ry="1.28" fill="#A9C094" transform="rotate(-20 12.16 17.6)"/>
  <circle cx="10.24" cy="7.04" r="0.96" fill="#E8B4B8"/>
  <circle cx="21.76" cy="8.32" r="0.8" fill="#F4D03F"/>
  <circle cx="16" cy="5.44" r="0.96" fill="#E8B4B8"/>
</svg>