<svg xmlns="http://www.w3.org/2000/svg" width="512" height="512" viewBox="0 0 512 512">
  <defs>
    <linearGradient id="bg" x1="0%" y1="0%" x2="100%" y2="100%">
      <stop offset="0%" style="stop-color:#FAF8F3"/>
      <stop offset="100%" style="stop-color:#F5F0E6"/>
    </linearGradient>
    <linearGradient id="leaf" x1="0%" y1="0%" x2="0%" y2="100%">
      <stop offset="0%" style="stop-color:#8FA978"/>
      <stop offset="100%" style="stop-color:#6B8E5A"/>
    </linearGradient>
  </defs>
  <rect width="512" height="512" rx="76.8" fill="url(#bg)"/>
  <path d="M256 61.44 C153.6 128 112.64 240.64 256 409.6 C399.36 240.64 358.4 128 256 61.44Z" fill="url(#leaf)"/>
  <path d="M256 112.64 L256 358.4" stroke="#8B7355" stroke-width="10.24" stroke-linecap="round" fill="none"/>
  <ellipse cx="174.08" cy="204.8" rx="56.32" ry="28.16" fill="#A9C094" transform="rotate(-25 174.08 204.8)"/>
  <ellipse cx="337.92" cy="235.52" rx="56.32" ry="28.16" fill="#A9C094" transform="rotate(25 337.92 235.52)"/>
  <ellipse cx="194.56" cy="281.6" rx="40.96" ry="20.48" fill="#A9C094" transform="rotate(-20 194.56 281.6)"/>
  <circle cx="163.84" cy="112.64" r="15.36" fill="#E8B4B8"/>
  <circle cx="348.16" cy="133.12" r="12.8" fill="#F4D03F"/>
  <circle cx="256" cy="87.04" r="15.36" fill="#E8B4B8"/>
</svg>